<?xml version="1.0" standalone="no"?>
<!DOCTYPE svg PUBLIC "-//W3C//DTD SVG 20010904//EN"
 "http://www.w3.org/TR/2001/REC-SVG-20010904/DTD/svg10.dtd">
<svg version="1.0" xmlns="http://www.w3.org/2000/svg"
 width="820.000000pt" height="820.000000pt" viewBox="0 0 820.000000 820.000000"
 preserveAspectRatio="xMidYMid meet">
<metadata>
Created by potrace 1.14, written by Peter Selinger 2001-2017
</metadata>
<g transform="translate(0.000000,820.000000) scale(0.100000,-0.100000)"
fill="#000000" stroke="none">
<path d="M7723 8185 c-1506 -152 -2547 -803 -3254 -2036 -558 -972 -903 -2422
-989 -4159 -15 -296 -20 -360 -31 -360 -16 0 -111 51 -171 91 -296 201 -519
554 -597 944 -32 162 -42 347 -51 955 -9 594 -16 711 -60 942 -57 299 -175
500 -344 583 -39 20 -84 38 -101 40 -161 27 -172 28 -266 17 -407 -48 -869
-400 -1208 -921 -256 -394 -374 -788 -375 -1256 -1 -354 63 -609 199 -800 56
-79 111 -125 200 -166 61 -29 81 -33 176 -37 94 -4 118 -1 200 22 129 37 217
86 297 166 83 83 125 153 168 278 37 108 54 254 44 379 -6 82 -16 98 -39 63
-91 -137 -173 -211 -279 -250 -66 -25 -137 -23 -197 6 -261 124 -135 997 221
1531 165 248 347 382 524 386 111 2 170 -42 228 -174 87 -193 111 -497 112
-1399 0 -453 7 -577 41 -770 158 -895 770 -1855 1374 -2155 104 -52 293 -112
321 -101 7 3 13 116 17 378 35 2071 417 3795 1095 4943 93 158 267 412 369
540 228 286 540 568 825 746 424 265 887 402 1306 386 78 -3 144 -2 146 2 5 8
303 1147 308 1176 3 17 -3 20 -37 22 -22 0 -100 -5 -172 -12z"/>
</g>
</svg>
