<?xml version="1.0" encoding="utf-8"?>
<!-- Generator: Adobe Illustrator 25.2.1, SVG Export Plug-In . SVG Version: 6.00 Build 0)  -->
<svg version="1.1" id="Capa_1" xmlns="http://www.w3.org/2000/svg" xmlns:xlink="http://www.w3.org/1999/xlink" x="0px" y="0px"
	 viewBox="0 0 196.89 76.43" style="enable-background:new 0 0 196.89 76.43;" xml:space="preserve">
<style type="text/css">
	.st0{fill:#5C3327;}
</style>
<g>
	<path class="st0" d="M168.14,7.53c0.34,0.06,0.7,0.05,1.07-0.02c1.41-0.29,2.81-1.53,3.51-3.09c0.53-1.19,0.57-2.38,0.11-3.25
		c-0.31-0.6-0.87-1.01-1.55-1.13c-0.34-0.06-0.7-0.05-1.07,0.03c-1.41,0.29-2.82,1.53-3.52,3.09c-0.52,1.19-0.57,2.38-0.11,3.24
		C166.92,7.01,167.46,7.41,168.14,7.53"/>
	<path class="st0" d="M59.63,14.89c2.26-0.47,4.02-0.43,5.1-0.31l0.32,0.03l2.72-10.56l-0.52,0.04c-2.31,0.16-4.54,0.46-6.62,0.89
		C39.85,9.3,29.55,27.5,28.26,62.27c-2.28-0.71-6.38-4.16-7.2-10.15c-0.24-1.8-0.25-4.13-0.26-6.6c-0.02-6.53-0.04-13.94-4.63-14.88
		c-0.91-0.19-1.88-0.18-2.87,0.03c-3.06,0.64-5.96,2.93-8.21,5.64c-1.36,1.63-2.48,3.42-3.27,5.1c-2.41,5.14-2.42,12.2-0.01,15.43
		c0.86,1.16,1.99,1.76,3.28,1.77c0.24,0,0.49-0.01,0.74-0.05c0.16-0.02,0.32-0.05,0.47-0.08c5.54-1.15,5.03-7.03,5.02-7.09
		l-0.1-1.03l-0.58,0.85c-0.01,0.02-1.02,1.46-2.42,1.75c-0.47,0.1-0.93,0.05-1.38-0.13c-1.05-0.44-1.54-2.22-1.3-4.77
		c0.48-5.21,3.69-11.59,7.23-12.32c0.22-0.05,0.44-0.07,0.65-0.08c0.56-0.01,1.02,0.16,1.4,0.53c1.7,1.67,1.68,6.97,1.67,13.69
		c-0.01,0.92-0.01,1.86,0,2.82c0.01,9.9,7.95,22.49,14.9,23.64l0.43,0.07l0-0.44c0.17-20.59,3.58-36.47,10.13-47.21
		C48.14,18.6,55.69,15.71,59.63,14.89"/>
	<path class="st0" d="M51.98,24.51c-1.15,0.69-2.46,1.14-4.31,1.71c-1.45,0.44-1.9,1.15-2.39,2.6c-0.56,1.69-1.03,3.97-1.05,4.06
		l-0.12,0.57l0.56-0.12c1.9-0.4,3.7-0.77,5.71-2.93c1.56-1.67,2.18-4.71,2.16-5.58l-0.02-0.64L51.98,24.51z"/>
	<path class="st0" d="M69.69,51.3c3.62-0.76,5.38-4.39,5.66-6.03l0.17-0.95l-0.77,0.59c-0.48,0.37-1.05,0.64-1.64,0.76
		c-0.99,0.2-2-0.01-2.49-0.53c-0.27-0.29-0.36-0.63-0.26-1.01l3.89-14.93l-6.55,1.36l-0.51,1.93c-0.59-0.49-1.76-1.05-3.74-0.63
		c-5.74,1.19-11.79,6.92-12.23,15.57c-0.02,0.38,0.01,0.79,0.08,1.22c-1.22,1.34-2.48,2.07-4.06,2.36c-0.35,0.06-0.61,0-0.8-0.21
		c-0.38-0.41-0.45-1.34-0.19-2.37l3.69-14.18l-6.55,1.36l-0.06,0.23c-0.52,1.97-2.64,10.13-3.4,13.09l-0.26,0.98
		c-0.5,1.91,0,4.07,1.23,5.36c0.73,0.76,2.03,1.58,4.12,1.15c1.44-0.3,4.94-1.32,7.86-4.49c0.18,0.21,0.38,0.41,0.59,0.6
		c0.92,0.78,2.49,1.62,4.79,1.14c3.21-0.67,5.76-3.14,6.67-4.12c0.55,0.83,1.97,2.33,4.76,1.75L69.69,51.3z M64.69,38.48
		c-0.24,0.95-0.67,2.6-1,3.83l-0.32,1.21c-0.82,3.15-2.76,4.62-4.3,4.94c-0.97,0.2-1.8-0.08-2.32-0.78
		c-0.83-1.12-1.06-3.55,0.8-6.99c0.92-1.7,3.35-3.81,5.5-4.25c0.6-0.13,1.09-0.02,1.39,0.3C64.8,37.09,64.88,37.71,64.69,38.48"/>
	<path class="st0" d="M196.13,19.69c-0.49,0.37-1.05,0.64-1.64,0.76c-0.99,0.21-2-0.01-2.5-0.53c-0.27-0.28-0.36-0.63-0.26-1.01
		l3.88-14.92l-4.2,0.87l-2.35,0.49l-0.5,1.93c-0.6-0.49-1.77-1.05-3.74-0.64c-5.74,1.19-11.79,6.93-12.23,15.56
		c-0.02,0.38,0.01,0.79,0.08,1.22c-1.22,1.34-2.48,2.07-4.06,2.36c-0.35,0.06-0.61-0.01-0.8-0.21c-0.38-0.41-0.46-1.34-0.19-2.37
		l3.69-14.18l-6.55,1.36l-0.06,0.23c-0.6,2.3-3.38,12.99-3.66,14.07c-0.22,0.84-0.24,1.73-0.1,2.58c-0.79,0.51-1.59,0.86-2.33,1.02
		l-0.1,0.02c-0.65,0.12-1.25-0.13-1.58-0.65c0.03-0.05,0.06-0.09,0.09-0.15c2.21-4.29,1.97-7.28,1.6-9.15
		c-0.46-2.34-1.72-3.6-2.69-4.24c-1.22-0.81-2.75-1.13-4.1-0.85c-1.52,0.33-2.57,0.98-3.26,1.58l0.3-1.15l-6.55,1.36l-4.39,16.86
		c-0.87,0.61-1.77,1.03-2.6,1.21l-0.11,0.02c-0.47,0.09-0.92-0.03-1.26-0.29c0.12-0.21,0.24-0.42,0.35-0.63
		c2.21-4.29,1.97-7.28,1.6-9.15c-0.47-2.34-1.72-3.6-2.69-4.24c-1.23-0.81-2.75-1.13-4.1-0.85c-1.51,0.32-2.56,0.98-3.26,1.58
		l0.3-1.15l-6.53,1.36l-0.08,0.19c-1.17,3.15-3.31,5.77-6.54,8.01c1.15-4.42,5.93-22.75,6.75-25.92l0.15-0.59l-0.59,0.12
		c-11.97,2.49-18.83,11.57-22.48,18.75c-1.82,3.58-2.98,7.77-4.21,12.21c-1.95,7.04-3.97,14.31-8.82,20.29
		c-2.02,2.49-5.06,3.55-7.26,4.01c-2.27,0.47-4.08,0.4-4.11,0.39l-0.3-0.01l-2.88,10.71l0.53-0.04c0.06,0,1.51-0.13,3.6-0.57
		c3.41-0.71,8.16-2.15,11.47-5.05c6.2-5.41,8.94-14.34,11.62-24.61c2.13-0.26,3.68-0.49,5.15-0.79c0.98-0.2,1.94-0.45,3.05-0.78
		l-2.09,8.04l6.56-1.36l2.3-8.84c1.72-0.64,3.79-1.58,5.21-2.78l-7.45,28.5l6.56-1.36l4.99-19.19c0.67,0.5,2.03,1.16,4.21,0.71
		c1.9-0.39,3.87-1.46,5.59-2.94c1,0.94,2.37,1.29,3.93,0.96c0.47-0.1,1.2-0.36,2.09-0.84l-4.67,17.94l6.55-1.36l4.99-19.19
		c0.67,0.5,2.03,1.16,4.21,0.71c2.04-0.42,4.16-1.63,5.96-3.27c1.02,1.09,2.47,1.52,4.14,1.17c0.9-0.19,2.71-0.96,4.76-2.64
		c0.76,0.66,1.99,1.24,3.83,0.86c1.44-0.3,4.94-1.32,7.84-4.48c0.18,0.21,0.38,0.41,0.6,0.59c0.91,0.79,2.49,1.62,4.78,1.14
		c3.22-0.67,5.76-3.14,6.67-4.12c0.55,0.83,1.97,2.33,4.76,1.75l0.02,0c0.12-0.03,0.23-0.06,0.35-0.09
		c3.38-0.92,5.03-4.35,5.31-5.93l0.16-0.95L196.13,19.69z M105.93,31.42c-2.23,0.98-4.29,1.83-6.87,2.37
		c-0.52,0.11-1.03,0.2-1.57,0.27c2.69-14.68,11.35-22.26,14.07-24.32C110.52,13.78,106.64,28.71,105.93,31.42 M126.89,33.96
		c-0.64,0.65-1.44,1.11-2.22,1.27c-0.82,0.17-1.55,0.02-2-0.41c-0.43-0.4-0.59-1.04-0.47-1.85c0.46-3.02,1.37-5.67,1.65-6.37
		c0.63-1.53,1.87-2.65,3.25-2.94c1.19-0.25,2.2,0.18,2.68,1.13C130.68,26.6,129.44,31.36,126.89,33.96 M149.59,29.24
		c-0.64,0.65-1.43,1.11-2.23,1.27c-0.82,0.17-1.55,0.02-2-0.41c-0.43-0.4-0.6-1.04-0.47-1.85c0.46-3.02,1.37-5.67,1.65-6.36
		c0.62-1.53,1.87-2.65,3.25-2.94c1.19-0.25,2.2,0.17,2.68,1.13C153.38,21.88,152.14,26.64,149.59,29.24 M186.07,13.26
		c-0.24,0.96-0.68,2.63-1.01,3.87l-0.31,1.17c-0.82,3.15-2.76,4.62-4.3,4.94c-0.97,0.2-1.8-0.08-2.32-0.78
		c-0.83-1.12-1.06-3.54,0.8-6.99c0.92-1.7,3.35-3.81,5.51-4.25c0.59-0.12,1.08-0.02,1.39,0.3
		C186.17,11.87,186.26,12.49,186.07,13.26"/>
	<path class="st0" d="M150.68,40.97c1.06,0,1.61,0.34,1.61,1.88c0,1.59-0.64,1.92-1.63,1.92h-0.85c-0.09,0-0.12-0.02-0.12-0.11
		v-3.57c0-0.1,0.02-0.12,0.12-0.12H150.68z M150.65,44.18c0.63,0,0.86-0.27,0.86-1.33c0-0.99-0.24-1.27-0.86-1.27h-0.2v2.6H150.65z"
		/>
	<path class="st0" d="M150.67,44.82h-0.85c-0.12,0-0.16-0.04-0.16-0.16v-3.57c0-0.14,0.06-0.16,0.17-0.16h0.86
		c1.39,0,1.66,0.71,1.66,1.93C152.34,44.49,151.67,44.82,150.67,44.82 M149.82,41.02c-0.08,0-0.08,0-0.08,0.07v3.57
		c0,0.07,0,0.07,0.07,0.07h0.85c0.98,0,1.58-0.31,1.58-1.87c0-1.54-0.55-1.83-1.57-1.83H149.82z M150.65,44.22h-0.25v-2.7h0.25
		c0.68,0,0.91,0.33,0.91,1.32C151.56,43.89,151.34,44.22,150.65,44.22 M150.5,44.13h0.15c0.55,0,0.81-0.19,0.81-1.28
		c0-1.03-0.27-1.22-0.81-1.22h-0.15V44.13z"/>
	<path class="st0" d="M155.99,44.66c0,0.1-0.02,0.11-0.11,0.11h-1.82c-0.09,0-0.12-0.02-0.12-0.11v-3.57c0-0.1,0.02-0.12,0.12-0.12
		h1.82c0.11,0,0.14,0.01,0.14,0.06c0,0.03-0.01,0.04-0.02,0.08l-0.11,0.37c-0.02,0.08-0.08,0.09-0.13,0.09h-1.07v0.91h0.94
		c0.1,0,0.12,0.02,0.12,0.12v0.37c0,0.1-0.02,0.11-0.12,0.11h-0.94v1.09h1.19c0.1,0,0.12,0.02,0.12,0.12V44.66z"/>
	<path class="st0" d="M155.88,44.82h-1.82c-0.11,0-0.16-0.03-0.16-0.16v-3.57c0-0.12,0.04-0.16,0.16-0.16h1.82
		c0.08,0,0.19,0,0.19,0.11c0,0.03,0,0.04-0.01,0.06l-0.11,0.4c-0.02,0.08-0.08,0.12-0.17,0.12h-1.03v0.82h0.89
		c0.13,0,0.16,0.04,0.16,0.16v0.37c0,0.14-0.06,0.16-0.16,0.16h-0.89v0.99h1.14c0.13,0,0.17,0.04,0.17,0.16v0.37
		C156.04,44.78,156.01,44.82,155.88,44.82 M154.06,41.02c-0.07,0-0.07,0-0.07,0.07v3.57c0,0.07,0,0.07,0.07,0.07h1.82
		c0.04,0,0.05,0,0.06-0.01c0,0,0.01-0.01,0.01-0.06v-0.37c0-0.05-0.01-0.06-0.01-0.06c0,0-0.01-0.01-0.06-0.01h-1.23v-1.18h0.99
		c0.07,0,0.07,0,0.07-0.07v-0.37c0-0.07,0-0.07-0.07-0.07h-0.99v-1.01h1.12c0.05,0,0.07-0.01,0.08-0.05l0.11-0.4
		c0.01-0.02,0.01-0.02,0.01-0.04c0-0.01-0.02-0.01-0.09-0.01H154.06z"/>
	<path class="st0" d="M159.43,41.67c-0.02,0.03-0.04,0.06-0.06,0.06c-0.03,0-0.38-0.25-0.78-0.25c-0.25,0-0.52,0.1-0.52,0.43
		c0,0.42,0.65,0.5,1.14,0.86c0.28,0.21,0.48,0.5,0.48,0.93c0,0.7-0.5,1.17-1.2,1.17c-0.57,0-1.16-0.25-1.16-0.33
		c0-0.02,0.02-0.06,0.03-0.09l0.13-0.37c0.01-0.03,0.04-0.06,0.06-0.06c0.03,0,0.45,0.25,0.92,0.25c0.31,0,0.5-0.17,0.5-0.51
		c0-0.49-0.56-0.54-1.13-0.89c-0.3-0.18-0.48-0.4-0.48-0.86c0-0.8,0.58-1.13,1.22-1.13c0.53,0,1.07,0.24,1.07,0.34
		c0,0.02-0.01,0.04-0.03,0.08L159.43,41.67z"/>
	<path class="st0" d="M158.49,44.92c-0.53,0-1.21-0.24-1.21-0.38c0-0.02,0.01-0.05,0.02-0.08l0.01-0.03l0.13-0.37
		c0.02-0.05,0.06-0.09,0.11-0.09c0.02,0,0.03,0.01,0.09,0.03c0.14,0.06,0.47,0.21,0.83,0.21c0.3,0,0.45-0.16,0.45-0.46
		c0-0.32-0.26-0.43-0.62-0.6c-0.15-0.07-0.32-0.15-0.49-0.25c-0.26-0.16-0.51-0.38-0.51-0.9c0-0.87,0.66-1.18,1.27-1.18
		c0.51,0,1.12,0.24,1.12,0.39c0,0.03-0.01,0.06-0.03,0.1l-0.18,0.36c-0.03,0.07-0.07,0.08-0.1,0.08c-0.02,0-0.04-0.01-0.09-0.04
		c-0.12-0.06-0.39-0.21-0.69-0.21c-0.18,0-0.47,0.05-0.47,0.39c0,0.24,0.25,0.36,0.57,0.51c0.18,0.08,0.38,0.18,0.55,0.31
		c0.33,0.25,0.49,0.57,0.49,0.97C159.73,44.42,159.22,44.92,158.49,44.92 M157.55,44.07c-0.01,0-0.01,0.01-0.02,0.02l-0.14,0.4
		c-0.01,0.01-0.01,0.04-0.02,0.04c0.04,0.06,0.57,0.28,1.11,0.28c0.68,0,1.15-0.46,1.15-1.12c0-0.37-0.15-0.66-0.46-0.89
		c-0.17-0.13-0.36-0.21-0.54-0.3c-0.33-0.16-0.62-0.3-0.62-0.6c0-0.3,0.21-0.48,0.57-0.48c0.32,0,0.61,0.15,0.73,0.22
		c0.02,0.01,0.03,0.02,0.04,0.02c0,0,0.01-0.01,0.02-0.03l0.18-0.37c0.02-0.03,0.02-0.05,0.02-0.06c-0.03-0.06-0.51-0.29-1.02-0.29
		c-0.73,0-1.17,0.41-1.17,1.08c0,0.45,0.18,0.65,0.46,0.82c0.16,0.1,0.33,0.18,0.48,0.24c0.36,0.16,0.67,0.31,0.67,0.68
		c0,0.36-0.19,0.56-0.55,0.56c-0.39,0-0.73-0.16-0.87-0.22C157.57,44.09,157.56,44.08,157.55,44.07"/>
	<path class="st0" d="M162.31,40.97c1.06,0,1.61,0.34,1.61,1.88c0,1.59-0.64,1.92-1.63,1.92h-0.85c-0.1,0-0.12-0.02-0.12-0.11v-3.57
		c0-0.1,0.02-0.12,0.12-0.12H162.31z M162.28,44.18c0.63,0,0.86-0.27,0.86-1.33c0-0.99-0.24-1.27-0.86-1.27h-0.2v2.6H162.28z"/>
	<path class="st0" d="M162.3,44.82h-0.85c-0.12,0-0.16-0.04-0.16-0.16v-3.57c0-0.14,0.06-0.16,0.17-0.16h0.86
		c1.39,0,1.66,0.71,1.66,1.93C163.97,44.49,163.3,44.82,162.3,44.82 M161.45,41.02c-0.08,0-0.08,0-0.08,0.07v3.57
		c0,0.07,0,0.07,0.07,0.07h0.85c0.98,0,1.58-0.31,1.58-1.87c0-1.54-0.55-1.83-1.57-1.83H161.45z M162.28,44.22h-0.24v-2.7h0.24
		c0.68,0,0.91,0.33,0.91,1.32C163.19,43.89,162.97,44.22,162.28,44.22 M162.13,44.13h0.15c0.55,0,0.81-0.19,0.81-1.28
		c0-1.03-0.27-1.22-0.81-1.22h-0.15V44.13z"/>
	<path class="st0" d="M167.63,44.66c0,0.1-0.02,0.11-0.11,0.11h-1.82c-0.09,0-0.12-0.02-0.12-0.11v-3.57c0-0.1,0.02-0.12,0.12-0.12
		h1.82c0.11,0,0.14,0.01,0.14,0.06c0,0.03-0.01,0.04-0.02,0.08l-0.11,0.37c-0.02,0.08-0.08,0.09-0.13,0.09h-1.07v0.91h0.94
		c0.1,0,0.12,0.02,0.12,0.12v0.37c0,0.1-0.02,0.11-0.12,0.11h-0.94v1.09h1.19c0.1,0,0.12,0.02,0.12,0.12V44.66z"/>
	<path class="st0" d="M167.52,44.82h-1.82c-0.11,0-0.17-0.03-0.17-0.16v-3.57c0-0.14,0.06-0.16,0.17-0.16h1.82
		c0.08,0,0.19,0,0.19,0.11c0,0.03-0.01,0.04-0.01,0.07l-0.11,0.39c-0.03,0.12-0.14,0.12-0.17,0.12h-1.03v0.82h0.89
		c0.13,0,0.17,0.04,0.17,0.16v0.37c0,0.14-0.06,0.16-0.17,0.16h-0.89v0.99h1.14c0.13,0,0.16,0.04,0.16,0.16v0.37
		C167.67,44.78,167.64,44.82,167.52,44.82 M165.69,41.02c-0.07,0-0.07,0-0.07,0.07v3.57c0,0.07,0,0.07,0.07,0.07h1.82
		c0.05,0,0.06,0,0.06-0.01c0,0,0.01-0.01,0.01-0.06v-0.37c0-0.05-0.01-0.06-0.01-0.06c0,0-0.01-0.01-0.06-0.01h-1.23v-1.18h0.99
		c0.07,0,0.07,0,0.07-0.07v-0.37c0-0.07,0-0.07-0.07-0.07h-0.99v-1.01h1.12c0.05,0,0.07-0.01,0.08-0.05l0.11-0.4
		c0.01-0.02,0.01-0.03,0.01-0.04c0-0.01-0.02-0.01-0.09-0.01H165.69z"/>
	<path class="st0" d="M174.07,44.7c0,0.06-0.01,0.08-0.08,0.08h-1.7c-0.07,0-0.08-0.01-0.08-0.08v-0.36c0-0.06,0.01-0.08,0.08-0.08
		h0.56v-2.35l-0.59,0.37c-0.03,0.02-0.05,0.03-0.08,0.03c-0.03,0-0.06-0.03-0.08-0.07l-0.14-0.25c-0.02-0.02-0.02-0.04-0.02-0.07
		c0-0.03,0.03-0.06,0.07-0.09l1.05-0.75h0.39c0.1,0,0.11,0.02,0.11,0.11v3.08h0.44c0.07,0,0.08,0.02,0.08,0.08V44.7z"/>
	<path class="st0" d="M173.99,44.82h-1.7c-0.09,0-0.13-0.03-0.13-0.12v-0.36c0-0.09,0.04-0.12,0.13-0.12h0.51v-2.22l-0.53,0.33
		c-0.02,0.01-0.05,0.03-0.09,0.03c-0.07,0-0.1-0.06-0.12-0.1l-0.14-0.25c-0.02-0.02-0.03-0.06-0.03-0.1c0-0.06,0.04-0.1,0.08-0.13
		l1.06-0.76h0.4c0.13,0,0.16,0.05,0.16,0.16v3.03h0.39c0.1,0,0.13,0.05,0.13,0.12v0.36C174.12,44.79,174.08,44.82,173.99,44.82
		 M172.27,44.72c0,0,0.01,0,0.03,0h1.7c0.02,0,0.03,0,0.03,0c0,0,0-0.01,0-0.03v-0.36c0-0.02,0-0.03,0-0.03c0,0-0.01,0-0.03,0h-0.48
		v-3.12c0-0.04,0-0.05-0.01-0.06c0,0-0.01-0.01-0.06-0.01h-0.37l-1.04,0.74c-0.04,0.03-0.05,0.05-0.05,0.05c0,0.02,0,0.03,0.01,0.04
		l0.15,0.26c0.03,0.04,0.03,0.05,0.04,0.05c0.01,0,0.02-0.01,0.04-0.02l0.02-0.01l0.66-0.41v2.48h-0.61c-0.02,0-0.03,0-0.03,0
		c0,0,0,0.01,0,0.03v0.36C172.26,44.71,172.26,44.72,172.27,44.72C172.26,44.73,172.26,44.72,172.27,44.72"/>
	<path class="st0" d="M176.18,44.25c0.01-0.02,0.03-0.06,0.05-0.06c0.05,0,0.19,0.09,0.38,0.09c0.7,0,0.88-0.75,0.93-0.94
		l-0.01-0.01c-0.08,0.1-0.26,0.33-0.65,0.33c-0.52,0-1.01-0.37-1.01-1.3c0-0.86,0.47-1.39,1.19-1.39c0.69,0,1.19,0.47,1.19,1.63
		c0,1.52-0.71,2.27-1.66,2.27c-0.32,0-0.54-0.11-0.54-0.18c0-0.02,0.01-0.03,0.01-0.05L176.18,44.25z M177.53,42.33
		c0-0.49-0.16-0.76-0.49-0.76c-0.31,0-0.5,0.26-0.5,0.76c0,0.49,0.18,0.74,0.49,0.74C177.33,43.08,177.53,42.84,177.53,42.33"/>
	<path class="st0" d="M176.59,44.92c-0.31,0-0.59-0.11-0.59-0.22c0-0.02,0.01-0.04,0.01-0.06l0.12-0.39
		c0.01-0.04,0.05-0.09,0.1-0.09c0.02,0,0.05,0.01,0.09,0.03c0.07,0.03,0.17,0.06,0.29,0.06c0.53,0,0.75-0.46,0.83-0.74
		c-0.11,0.11-0.29,0.21-0.57,0.21c-0.51,0-1.06-0.35-1.06-1.35c0-0.88,0.47-1.43,1.24-1.43c0.46,0,1.23,0.22,1.23,1.67
		C178.29,44.03,177.64,44.92,176.59,44.92 M176.23,44.24c0,0-0.01,0.01-0.01,0.02l-0.12,0.39c-0.01,0.02-0.01,0.03-0.01,0.04
		c0.02,0.03,0.21,0.13,0.49,0.13c1.01,0,1.61-0.83,1.61-2.22c0-1.03-0.39-1.58-1.14-1.58c-0.71,0-1.14,0.51-1.14,1.34
		c0,0.92,0.5,1.25,0.96,1.25c0.37,0,0.53-0.2,0.61-0.31l0.04-0.04l0.07,0.07l-0.01,0.04c-0.16,0.64-0.49,0.96-0.97,0.96
		c-0.14,0-0.25-0.04-0.33-0.07C176.27,44.25,176.24,44.24,176.23,44.24 M177.03,43.12c-0.2,0-0.54-0.1-0.54-0.79
		c0-0.5,0.21-0.81,0.55-0.81c0.24,0,0.53,0.14,0.53,0.81C177.57,43.02,177.23,43.12,177.03,43.12 M177.04,41.62
		c-0.29,0-0.46,0.26-0.46,0.71c0,0.46,0.15,0.7,0.45,0.7c0.37,0,0.45-0.38,0.45-0.7C177.48,41.86,177.33,41.62,177.04,41.62"/>
	<path class="st0" d="M181.17,44.87c-0.73,0-1.29-0.37-1.29-1.06c0-0.64,0.56-0.89,0.79-0.98c-0.22-0.1-0.65-0.33-0.65-0.88
		c0-0.52,0.47-0.97,1.16-0.97c0.65,0,1.15,0.4,1.15,0.96c0,0.52-0.43,0.77-0.63,0.87c0.27,0.13,0.77,0.39,0.77,0.98
		C182.48,44.32,182.05,44.87,181.17,44.87 M181.77,43.78c0-0.45-0.48-0.62-0.63-0.69c-0.13,0.07-0.56,0.26-0.56,0.68
		c0,0.33,0.26,0.52,0.59,0.52C181.52,44.29,181.77,44.07,181.77,43.78 M181.63,42.02c0-0.25-0.17-0.46-0.45-0.46
		c-0.27,0-0.45,0.2-0.45,0.46c0,0.37,0.34,0.49,0.48,0.55C181.34,42.5,181.63,42.38,181.63,42.02"/>
	<path class="st0" d="M181.17,44.92c-0.81,0-1.34-0.43-1.34-1.11c0-0.31,0.13-0.72,0.72-0.99c-0.21-0.11-0.58-0.36-0.58-0.88
		c0-0.58,0.52-1.02,1.21-1.02c0.69,0,1.2,0.44,1.2,1.01c0,0.49-0.36,0.75-0.57,0.87c0.26,0.13,0.72,0.4,0.72,0.98
		C182.52,44.53,181.84,44.92,181.17,44.92 M181.18,41.02c-0.64,0-1.11,0.4-1.11,0.92c0,0.49,0.35,0.72,0.62,0.84l0.1,0.05l-0.1,0.04
		c-0.5,0.19-0.76,0.52-0.76,0.94c0,0.62,0.48,1.01,1.24,1.01c0.87,0,1.26-0.53,1.26-1.03c0-0.52-0.4-0.77-0.74-0.94l-0.08-0.04
		l0.08-0.04c0.18-0.1,0.6-0.33,0.6-0.83C182.29,41.42,181.81,41.02,181.18,41.02 M181.17,44.33c-0.38,0-0.64-0.23-0.64-0.56
		c0-0.42,0.39-0.62,0.55-0.71l0.05-0.03l0.06,0.03c0.19,0.08,0.62,0.26,0.62,0.72C181.82,44.1,181.55,44.33,181.17,44.33
		 M181.14,43.14l-0.01,0.01c-0.15,0.08-0.5,0.26-0.5,0.62c0,0.28,0.21,0.47,0.55,0.47c0.32,0,0.55-0.2,0.55-0.46
		c0-0.39-0.38-0.55-0.56-0.63L181.14,43.14z M181.2,42.61l-0.03-0.01c-0.15-0.06-0.5-0.2-0.5-0.59c0-0.29,0.22-0.5,0.5-0.5
		c0.29,0,0.5,0.21,0.5,0.51c0,0.39-0.3,0.52-0.44,0.58L181.2,42.61z M181.17,41.6c-0.24,0-0.41,0.17-0.41,0.41
		c0,0.32,0.29,0.44,0.43,0.5c0.15-0.06,0.38-0.17,0.38-0.49C181.58,41.77,181.41,41.6,181.17,41.6"/>
	<path class="st0" d="M186.17,44.76c0,0.09-0.02,0.11-0.11,0.11h-0.48c-0.09,0-0.11-0.02-0.11-0.11v-0.72h-1.35
		c-0.1,0-0.12-0.02-0.12-0.11v-0.58l1.38-2.3c0.02-0.04,0.04-0.07,0.07-0.07c0.03,0,0.05,0.01,0.08,0.02l0.33,0.14
		c0.04,0.02,0.08,0.03,0.08,0.08c0,0.03-0.02,0.05-0.03,0.08l-1.29,2.19h0.85l0.09-0.89c0.01-0.09,0.02-0.11,0.12-0.11h0.39
		c0.09,0,0.11,0.02,0.11,0.12v0.88h0.31c0.1,0,0.11,0.01,0.11,0.13v0.31c0,0.09-0.02,0.11-0.11,0.11h-0.31V44.76z"/>
	<path class="st0" d="M186.07,44.92h-0.48c-0.12,0-0.16-0.04-0.16-0.16v-0.67h-1.3c-0.13,0-0.16-0.04-0.16-0.16v-0.6l0.01-0.01
		l1.38-2.3c0.03-0.05,0.06-0.09,0.11-0.09c0.03,0,0.05,0.01,0.07,0.02c0.01,0,0.01,0.01,0.02,0.01l0.34,0.14
		c0.05,0.02,0.11,0.05,0.11,0.12c0,0.04-0.02,0.07-0.04,0.1l-1.26,2.13h0.72l0.09-0.85c0.01-0.12,0.05-0.15,0.16-0.15h0.39
		c0.12,0,0.16,0.04,0.16,0.17v0.84h0.26c0.13,0,0.16,0.04,0.16,0.18v0.31c0,0.12-0.04,0.16-0.16,0.16h-0.26v0.67
		C186.22,44.88,186.19,44.92,186.07,44.92 M184.05,43.36v0.57c0,0.04,0.01,0.05,0.01,0.05c0,0,0.01,0.01,0.06,0.01h1.4v0.76
		c0,0.05,0.01,0.06,0.01,0.06c0,0,0.01,0.01,0.06,0.01h0.48c0.04,0,0.05,0,0.06-0.01c0,0,0.01-0.01,0.01-0.06v-0.76h0.36
		c0.05,0,0.06,0,0.06-0.01c0,0,0.01-0.01,0.01-0.05v-0.31c0-0.06,0-0.08-0.01-0.08c-0.01,0-0.05,0-0.06,0h-0.36V42.6
		c0-0.05,0-0.06-0.01-0.07c0,0-0.01-0.01-0.05-0.01h-0.39c-0.07,0-0.07,0-0.07,0.07l-0.09,0.94h-0.97l1.33-2.27
		c0.02-0.03,0.03-0.04,0.03-0.06c0-0.01-0.02-0.02-0.05-0.03l-0.33-0.14c-0.01,0-0.01,0-0.02-0.01c-0.02-0.01-0.03-0.01-0.04-0.01
		c0,0-0.02,0.03-0.03,0.04L184.05,43.36z"/>
</g>
</svg>
